<?xml version="1.0" encoding="iso-8859-1"?>
<!-- Generator: Adobe Illustrator 19.0.0, SVG Export Plug-In . SVG Version: 6.00 Build 0)  -->
<svg version="1.1" id="Capa_1" xmlns="http://www.w3.org/2000/svg" xmlns:xlink="http://www.w3.org/1999/xlink" x="0px" y="0px"
	 viewBox="0 0 512 512" style="enable-background:new 0 0 512 512;" xml:space="preserve">
<path style="fill:#AEECFF;" d="M35.873,27.746c-2.079,0-4.159-0.794-5.746-2.381L18.635,13.873c-3.175-3.175-3.175-8.317,0-11.492
	s8.317-3.175,11.492,0l11.492,11.492c3.175,3.175,3.175,8.317,0,11.492C40.032,26.952,37.953,27.746,35.873,27.746z"/>
<path style="fill:#D9F6FF;" d="M70.357,62.226c-2.079,0-4.159-0.794-5.746-2.377l-11.5-11.492c-3.175-3.175-3.175-8.321,0-11.496
	c3.175-3.175,8.317-3.171,11.492-0.004l11.5,11.492c3.175,3.175,3.175,8.321,0,11.496C74.516,61.433,72.437,62.226,70.357,62.226z"
	/>
<path style="fill:#AEECFF;" d="M104.833,96.706c-2.079,0-4.159-0.794-5.746-2.381L87.595,82.833c-3.175-3.175-3.175-8.317,0-11.492
	c3.175-3.175,8.317-3.175,11.492,0l11.492,11.492c3.175,3.175,3.175,8.317,0,11.492C108.992,95.913,106.913,96.706,104.833,96.706z"
	/>
<path style="fill:#D9F6FF;" d="M139.318,131.187c-2.079,0-4.159-0.794-5.746-2.377l-11.5-11.492c-3.175-3.175-3.175-8.321,0-11.496
	s8.317-3.171,11.492-0.004l11.5,11.492c3.175,3.175,3.175,8.321,0,11.496C143.476,130.393,141.397,131.187,139.318,131.187z"/>
<g>
	<path style="fill:#AEECFF;" d="M178.794,170.667c-2.079,0-4.159-0.794-5.746-2.381l-16.492-16.492
		c-3.175-3.175-3.175-8.317,0-11.492s8.317-3.175,11.492,0l16.492,16.492c3.175,3.175,3.175,8.317,0,11.492
		C182.953,169.873,180.873,170.667,178.794,170.667z"/>
	<path style="fill:#AEECFF;" d="M92.762,27.746c-2.079,0-4.159-0.794-5.746-2.381L75.524,13.873c-3.175-3.175-3.175-8.317,0-11.492
		s8.317-3.175,11.492,0l11.492,11.492c3.175,3.175,3.175,8.317,0,11.492C96.921,26.952,94.841,27.746,92.762,27.746z"/>
</g>
<path style="fill:#D9F6FF;" d="M127.246,62.226c-2.079,0-4.159-0.794-5.746-2.377L110,48.357c-3.175-3.175-3.175-8.321,0-11.496
	s8.317-3.171,11.492-0.004l11.5,11.492c3.175,3.175,3.175,8.321,0,11.496C131.405,61.433,129.326,62.226,127.246,62.226z"/>
<path style="fill:#AEECFF;" d="M161.722,96.706c-2.079,0-4.159-0.794-5.746-2.381l-11.492-11.492c-3.175-3.175-3.175-8.317,0-11.492
	c3.175-3.175,8.317-3.175,11.492,0l11.492,11.492c3.175,3.175,3.175,8.317,0,11.492C165.881,95.913,163.802,96.706,161.722,96.706z"
	/>
<path style="fill:#D9F6FF;" d="M211.302,146.286c-2.079,0-4.159-0.794-5.746-2.381l-26.595-26.591
	c-3.175-3.171-3.175-8.317,0-11.492c3.175-3.175,8.317-3.175,11.492,0l26.595,26.591c3.175,3.171,3.175,8.317,0,11.492
	C215.46,145.492,213.381,146.286,211.302,146.286z"/>
<path style="fill:#AEECFF;" d="M149.651,27.746c-2.079,0-4.159-0.794-5.746-2.381l-11.492-11.492c-3.175-3.175-3.175-8.317,0-11.492
	s8.317-3.175,11.492,0l11.492,11.492c3.175,3.175,3.175,8.317,0,11.492C153.81,26.952,151.73,27.746,149.651,27.746z"/>
<path style="fill:#D9F6FF;" d="M184.135,62.226c-2.079,0-4.159-0.794-5.746-2.377l-11.5-11.492c-3.175-3.175-3.175-8.321,0-11.496
	s8.317-3.171,11.492-0.004l11.5,11.492c3.175,3.175,3.175,8.321,0,11.496C188.294,61.433,186.214,62.226,184.135,62.226z"/>
<path style="fill:#AEECFF;" d="M218.611,96.706c-2.079,0-4.159-0.794-5.746-2.381l-11.492-11.492c-3.175-3.175-3.175-8.317,0-11.492
	s8.317-3.175,11.492,0l11.492,11.492c3.175,3.175,3.175,8.317,0,11.492C222.77,95.913,220.691,96.706,218.611,96.706z"/>
<path style="fill:#D9F6FF;" d="M478.036,256.61L276.318,414.476L74.599,256.61c-8.315-6.508-8.315-19.093,0-25.6L256.283,88.822
	c11.769-9.21,28.301-9.21,40.07,0l181.684,142.187C486.351,237.517,486.351,250.102,478.036,256.61z"/>
<path style="fill:#C9C6CA;" d="M468.246,253.663L281.325,107.377c-2.936-2.302-7.079-2.302-10.016,0L84.389,253.663
	c-1.968,1.54-3.119,3.901-3.119,6.401v219.429h390.095V260.064C471.365,257.564,470.214,255.202,468.246,253.663z"/>
<polygon style="fill:#D9F6FF;" points="276.317,124.099 97.524,264.024 97.524,479.492 455.111,479.492 455.111,264.024 "/>
<path style="fill:#D4F582;" d="M463.238,512H89.397c-8.977,0-16.254-7.277-16.254-16.254v-16.254h406.349v16.254
	C479.492,504.723,472.215,512,463.238,512z"/>
<path style="fill:#AEECFF;" d="M276.317,144.739l162.54,127.204v191.295h-325.08V271.943L276.317,144.739"/>
<rect x="97.52" y="406.35" style="fill:#B4EAC5;" width="357.59" height="73.14"/>
<g>
	<rect x="438.86" y="406.35" style="fill:#CEF0C5;" width="16.254" height="73.14"/>
	<rect x="97.52" y="406.35" style="fill:#CEF0C5;" width="16.254" height="73.14"/>
</g>
<path style="fill:#99C65A;" d="M381.968,260.064c-5.948,0-11.453,1.722-16.254,4.521V243.81c0-4.489-3.638-8.127-8.127-8.127
	s-8.127,3.638-8.127,8.127v77.664c-4.801-2.8-10.306-4.521-16.254-4.521c-17.929,0-32.508,14.583-32.508,32.508v16.254h16.254
	V349.46c0-8.964,7.294-16.254,16.254-16.254s16.254,7.29,16.254,16.254v105.651h16.254v-162.54c0-8.964,7.294-16.254,16.254-16.254
	s16.254,7.29,16.254,16.254v16.254h16.254v-16.254C414.476,274.647,399.897,260.064,381.968,260.064z"/>
<circle style="fill:#FF8087;" cx="308.83" cy="381.97" r="24.381"/>
<path style="fill:#E6646E;" d="M321.016,394.159c-13.465,0-24.381-10.916-24.381-24.381c0-3.573,0.811-6.941,2.192-9.999
	c-8.466,3.823-14.382,12.297-14.382,22.189c0,13.465,10.916,24.381,24.381,24.381c9.892,0,18.366-5.917,22.189-14.382
	C327.957,393.348,324.589,394.159,321.016,394.159z"/>
<circle style="fill:#FF8087;" cx="406.35" cy="325.08" r="24.381"/>
<path style="fill:#E6646E;" d="M418.54,337.27c-13.465,0-24.381-10.916-24.381-24.381c0-3.573,0.811-6.941,2.192-9.999
	c-8.466,3.823-14.382,12.297-14.382,22.189c0,13.465,10.916,24.381,24.381,24.381c9.892,0,18.366-5.917,22.189-14.382
	C425.481,336.459,422.113,337.27,418.54,337.27z"/>
<path style="fill:#DCA587;" d="M300.699,455.111v24.381h113.778v-24.381c0-4.488-3.639-8.127-8.127-8.127h-97.524
	C304.337,446.984,300.699,450.623,300.699,455.111z"/>
<path style="fill:#CD9178;" d="M325.079,446.984h-16.254c-4.489,0-8.127,3.638-8.127,8.127v24.381h16.254v-24.381
	C316.953,450.623,320.591,446.984,325.079,446.984z"/>
<path style="fill:#99C65A;" d="M227.556,260.064c-5.948,0-11.453,1.722-16.254,4.521V243.81c0-4.489-3.638-8.127-8.127-8.127
	s-8.127,3.638-8.127,8.127v77.664c-4.801-2.8-10.306-4.521-16.254-4.521c-17.929,0-32.508,14.583-32.508,32.508v16.254h16.254
	V349.46c0-8.964,7.294-16.254,16.254-16.254c8.96,0,16.254,7.29,16.254,16.254v105.651h16.254v-162.54
	c0-8.964,7.294-16.254,16.254-16.254c8.96,0,16.254,7.29,16.254,16.254v16.254h16.254v-16.254
	C260.064,274.647,245.484,260.064,227.556,260.064z"/>
<circle style="fill:#FF8087;" cx="154.41" cy="381.97" r="24.381"/>
<path style="fill:#E6646E;" d="M166.603,394.159c-13.465,0-24.381-10.916-24.381-24.381c0-3.573,0.811-6.941,2.192-9.999
	c-8.466,3.823-14.382,12.297-14.382,22.189c0,13.465,10.916,24.381,24.381,24.381c9.892,0,18.366-5.917,22.189-14.382
	C173.544,393.348,170.176,394.159,166.603,394.159z"/>
<circle style="fill:#FF8087;" cx="251.94" cy="325.08" r="24.381"/>
<path style="fill:#E6646E;" d="M264.127,337.27c-13.465,0-24.381-10.916-24.381-24.381c0-3.573,0.811-6.941,2.192-9.999
	c-8.466,3.823-14.382,12.297-14.382,22.189c0,13.465,10.916,24.381,24.381,24.381c9.892,0,18.366-5.917,22.189-14.382
	C271.068,336.459,267.7,337.27,264.127,337.27z"/>
<path style="fill:#DCA587;" d="M146.286,455.111v24.381h113.778v-24.381c0-4.488-3.639-8.127-8.127-8.127h-97.524
	C149.924,446.984,146.286,450.623,146.286,455.111z"/>
<path style="fill:#CD9178;" d="M170.667,446.984h-16.254c-4.489,0-8.127,3.638-8.127,8.127v24.381h16.254v-24.381
	C162.54,450.623,166.178,446.984,170.667,446.984z"/>
<path style="fill:#BEE86E;" d="M487.619,487.619H65.016c-4.492,0-8.127-3.639-8.127-8.127s3.635-8.127,8.127-8.127h422.603
	c4.492,0,8.127,3.639,8.127,8.127S492.111,487.619,487.619,487.619z"/>
<g>
</g>
<g>
</g>
<g>
</g>
<g>
</g>
<g>
</g>
<g>
</g>
<g>
</g>
<g>
</g>
<g>
</g>
<g>
</g>
<g>
</g>
<g>
</g>
<g>
</g>
<g>
</g>
<g>
</g>
</svg>
