<svg height="464pt" viewBox="-31 0 463 464" width="464pt" xmlns="http://www.w3.org/2000/svg"><g fill="#87cee9"><path d="m224.5 200c0 75.113281-36.886719 120-112 120s-112-44.886719-112-120 112-200 112-200 112 124.886719 112 200zm0 0"/><path d="m400.5 260.207031c0 47.441407-21.078125 75.792969-64 75.792969s-64-28.351562-64-75.792969c0-47.4375 64-116.207031 64-116.207031s64 68.800781 64 116.207031zm0 0"/><path d="m272.5 408c0 33.601562-14.398438 56-48 56s-48-22.398438-48-56 48-88 48-88 48 54.398438 48 88zm0 0"/></g><path d="m96.5 296c-.265625 0-.535156-.011719-.800781-.039062-21.160157-1.203126-40.785157-11.429688-53.894531-28.082032-25.480469-33.3125-17.542969-83.078125-17.191407-85.199218.835938-4.242188 4.894531-7.050782 9.160157-6.339844 4.265624.707031 7.195312 4.679687 6.613281 8.964844-.0625.449218-7.109375 45.167968 14.167969 72.910156 10.480468 13.046875 26.035156 20.988281 42.746093 21.824218 4.242188.425782 7.402344 4.105469 7.191407 8.363282-.214844 4.253906-3.730469 7.597656-7.992188 7.597656zm0 0" fill="#195c85"/><path d="m328.5 312c-4.417969 0-8-3.582031-8-8s3.582031-8 8-8c10.101562-.191406 19.753906-4.21875 27-11.265625 5.707031-7.917969 7.589844-17.964844 5.136719-27.414063-.613281-4.300781 2.316406-8.304687 6.597656-9.019531 4.285156-.71875 8.359375 2.113281 9.175781 6.378907 3.378906 14.117187.15625 29.007812-8.757812 40.464843-10.300782 10.585938-24.382813 16.652344-39.152344 16.855469zm0 0" fill="#195c85"/><path d="m216.5 440c-1.234375.011719-2.457031-.261719-3.566406-.800781-6.304688-2.90625-11.128906-8.289063-13.332032-14.875-2.203124-6.582031-1.585937-13.785157 1.699219-19.898438 1.972657-3.957031 6.78125-5.5625 10.734375-3.585937 3.957032 1.976562 5.558594 6.78125 3.585938 10.734375-1.394532 2.304687-1.707032 5.101562-.859375 7.65625.851562 2.550781 2.777343 4.601562 5.273437 5.609375 3.316406 1.652344 5.066406 5.367187 4.222656 8.976562-.839843 3.609375-4.050781 6.167969-7.757812 6.183594zm0 0" fill="#195c85"/></svg>